<svg xmlns="http://www.w3.org/2000/svg" viewBox="0 0 945.74 975.73"><defs><style>.cls-1,.cls-2{fill:#fbe7a8;stroke:#f3c876;stroke-miterlimit:10;}.cls-1{stroke-width:25px;}.cls-2{stroke-width:12px;}.cls-3{fill:#dc7a7c;}.cls-4{fill:#ca4c44;}.cls-5{fill:#bd4f4a;}.cls-6{fill:#fff;}.cls-7{fill:#81be87;}</style></defs><title>logo 1 without title</title><g id="Слой_2" data-name="Слой 2"><path class="cls-1" d="M40.13,540.78c-1-27-4.53-195.14,134.12-326.67C289.36,104.92,428.33,91.27,482.14,90c10-.24,18.26,7.55,18.26,17.23V481.81c0,14.7,15.61,24.57,29.55,18.68L889.42,348.74c15.23-6.42,32.92.64,39,15.58A430.9,430.9,0,0,1,960.5,516.26c3.43,136.77-60.67,235.73-87,272-23.92,32-89,110.09-206.37,154.18C547.74,987.32,443.42,971,403.61,962.7c-37.72-7.88-159.2-38-255.48-148.61C49.93,701.31,41.3,577.61,40.13,540.78Z" transform="translate(-27.39 -9.31)"/><path class="cls-1" d="M564.7,21.86c-8.88-.74-16.5,6-16.5,14.64V421.27c0,10.59,11.25,17.7,21.3,13.46L948.38,274.79a14.47,14.47,0,0,0,6.84-21.21A503.23,503.23,0,0,0,798.13,98.89C705.84,41.33,616,26.17,564.7,21.86Z" transform="translate(-27.39 -9.31)"/><path class="cls-2" d="M573.06-51.46" transform="translate(-27.39 -9.31)"/><path class="cls-3" d="M638,97.65c-17.51-2.12-17.86,5.51-29.37,18.71s-16.67,31.2-15.55,48.58c.36,5.66,1.43,11.48,4.67,16.17,3.4,4.92,8.81,8.07,14.08,11,11.78,6.51,24,12.7,37.27,15.18s27.88.84,38.66-7.19c12.65-9.41,18-26.53,15.42-42s-12.29-29.09-24.52-39-26.9-16.53-41.8-21.85" transform="translate(-27.39 -9.31)"/><path class="cls-4" d="M638,95.15c-9-1-16.09.7-22,7.85-7,8.55-14.71,17.25-19.27,27.42a72.55,72.55,0,0,0-6,36.22c.52,5.51,1.72,11.09,4.88,15.73,3.67,5.39,9.4,8.78,15,11.88,21.73,12.06,48.74,23.72,73,11.36C704.75,194.84,710.86,168,702.69,147c-10.84-27.86-38.54-42.55-65.13-52.14-3-1.1-4.34,3.73-1.33,4.82,21.42,7.73,43.38,18.44,56.17,38.16,11.46,17.68,13.07,42.91-3.55,58.16-18.38,16.85-46,9.17-65.62-.68-10.35-5.18-23.12-10.42-26.45-22.57-2.94-10.69-1.35-23.33,2-33.73,3.64-11.22,10.74-19.3,17.74-28.48,2.32-3.06,4.63-6.6,7.94-8.69,4-2.54,9-2.16,13.55-1.67,3.2.34,3.17-4.66,0-5Z" transform="translate(-27.39 -9.31)"/><path class="cls-3" d="M638,247.19c-17.51-2.12-17.86,5.51-29.37,18.71S592,297.1,593.11,314.48c.36,5.66,1.43,11.48,4.67,16.17,3.4,4.92,8.81,8.07,14.08,11,11.78,6.51,24,12.7,37.27,15.18s27.88.84,38.66-7.19c12.65-9.41,18-26.52,15.42-41.95s-12.29-29.09-24.52-39-26.9-16.53-41.8-21.85" transform="translate(-27.39 -9.31)"/><path class="cls-5" d="M638,244.69c-9-1-16.09.7-22,7.85-7,8.56-14.71,17.25-19.27,27.42a72.57,72.57,0,0,0-6,36.22c.52,5.51,1.72,11.09,4.88,15.73,3.67,5.39,9.4,8.79,15,11.88,21.73,12.06,48.74,23.72,73,11.36,21.15-10.77,27.26-37.63,19.09-58.64-10.84-27.86-38.54-42.55-65.13-52.14-3-1.1-4.34,3.73-1.33,4.82,21.42,7.73,43.38,18.44,56.17,38.16,11.46,17.68,13.07,42.92-3.55,58.16-18.38,16.85-46,9.17-65.62-.67-10.35-5.19-23.12-10.43-26.45-22.58-2.94-10.69-1.35-23.33,2-33.73,3.64-11.22,10.74-19.3,17.74-28.48,2.32-3.06,4.63-6.6,7.94-8.69,4-2.54,9-2.16,13.55-1.67,3.2.34,3.17-4.66,0-5Z" transform="translate(-27.39 -9.31)"/><path class="cls-6" d="M636.61,292.06a9.43,9.43,0,0,0,11.47,2,7.35,7.35,0,0,0,2.26-10.15c-5.4-8.81-19.46,2.72-12.23,9.82a2.56,2.56,0,0,0,3,.39,7.7,7.7,0,0,0,2.78-2.83c1.61-2.79-2.71-5.31-4.32-2.52a2.38,2.38,0,0,1-1,1l3,.39c-2.15-2.12,3.24-6.6,4.65-3.26A2.21,2.21,0,0,1,645.1,290a4.57,4.57,0,0,1-5-1.45c-2.15-2.4-5.68,1.15-3.53,3.54Z" transform="translate(-27.39 -9.31)"/><path class="cls-6" d="M644.29,287.71c3.22,0,3.22-5,0-5s-3.22,5,0,5Z" transform="translate(-27.39 -9.31)"/><path class="cls-6" d="M652,327.35l-.95,1.5a2.53,2.53,0,0,0,.39,3,11.68,11.68,0,0,0,14,1.8c3.5-2.12,7.4-7.79,3.2-11.11-3.53-2.79-9.8-2.05-11.18,2.7-1.28,4.42,3.8,8.35,7.67,5.64a2.52,2.52,0,0,0,1.24-2.16c-.71-6.75-10.21-5.5-8.93,1.22.6,3.15,5.42,1.82,4.82-1.33l-.89.11,1.24-2.16c-.72.5.08-.39.47-.53a2.24,2.24,0,0,1,2,.2c.47.48.29.6-.22,1.28a7.3,7.3,0,0,1-1.54,1.55,6.53,6.53,0,0,1-8.35-.75l.39,3,1-1.5c1.73-2.72-2.59-5.23-4.32-2.52Z" transform="translate(-27.39 -9.31)"/><path class="cls-6" d="M621.48,313.35a3.81,3.81,0,0,0-1.75,4.42,3.93,3.93,0,0,0,4.1,2.8c4.43-.33,5.42-5.78,2.81-8.73a3.85,3.85,0,0,0-5.45-.16,4.88,4.88,0,0,0-1.71,4.32,4.63,4.63,0,0,0,7.23,3.07,4.1,4.1,0,0,0,1.21-5.49,4.42,4.42,0,0,0-5.08-2.06,2.57,2.57,0,0,0-1.75,3.08,2.52,2.52,0,0,0,3.07,1.74c.48-.16-.17,0-.39-.08s-.26-.53-.11-.06a1.14,1.14,0,0,1,0-1,.84.84,0,0,1,.34-.31c-.24.14-.24.14,0,0l-.21.06c.31,0,.32-.05,0,0,.3.05.32.05,0,0l.21.08a.73.73,0,0,1,.28.3c.07.26.07.25,0,0l0,.21c-.07.29-.06.28,0,0-.33.48.19-.38-.07.1.21-.2.22-.22,0,0a.64.64,0,0,1-.77-.07c-1.82-.4.16.3-.5.57,0,0,0-.28.1-.3a1,1,0,0,1,.49-.05,1.12,1.12,0,0,1,.26,2,2.5,2.5,0,0,0-2.52-4.32Z" transform="translate(-27.39 -9.31)"/><path class="cls-6" d="M677.61,298a6.83,6.83,0,0,0,.06,9.75,2.54,2.54,0,0,0,4.18-1.11c.92-2.31,2.48-4.21,2-6.87a4.92,4.92,0,0,0-4.5-4.1,3.91,3.91,0,0,0-4.18,3.64,3.81,3.81,0,0,0,3.6,4.1,2.52,2.52,0,0,0,2.5-2.5,2.56,2.56,0,0,0-2.5-2.5l-.28,0,1.26.34a2.86,2.86,0,0,1,.4.89c0,.75-.73.68-1.08,1.07a3.26,3.26,0,0,0-.25.81c-.38,1.32-1.27,2.55-1.78,3.83l4.17-1.1a1.78,1.78,0,0,1-.06-2.68c2.3-2.26-1.24-5.79-3.53-3.53Z" transform="translate(-27.39 -9.31)"/><path class="cls-6" d="M649.82,303.45c-2.75.49-4.1,4-2.8,6.32,1.42,2.57,4.9,2.78,7,1a5,5,0,0,0,.17-7.44c-2.19-2.24-5.68-2.13-8.23-.6-2.75,1.66-.24,6,2.53,4.32a2.13,2.13,0,0,1,1.91-.38l.24.18s.27.28.13.23.07-.2.08-.18.12-.07.13-.07-.2.1-.18.12.26,0,.34.12a3.22,3.22,0,0,1,.33.6c0,.09-.13.42,0,.15s0,.08-.07.1-.89.42-.28.31a2.5,2.5,0,0,0,1.74-3.07,2.55,2.55,0,0,0-3.07-1.75Z" transform="translate(-27.39 -9.31)"/><path class="cls-6" d="M627.5,135.55c-.29,2.23,0,4.8,1.71,6.41a4.53,4.53,0,0,0,6.24-.11c3.59-3.6.6-9.93-4.42-9.63a4.25,4.25,0,0,0-4.13,4.61c.19,2.32,2.36,4.44,4.8,3.77s3.12-3.94,2.35-6c-1-2.81-3.88-3.84-6.58-4.4-3.14-.65-4.49,4.17-1.33,4.82a9.21,9.21,0,0,1,3,1,.76.76,0,0,1,.29.35c.08.15.49-.36-.12.14l1.77-.73a.9.9,0,0,1,.81.88c-.66.46-.8.67-.41.63a1.23,1.23,0,0,1,.31.14s.22.14.26.22c-.09-.16.1.92-.06.73.11.12-1.22-.81.34-.11.49.21.2.32.23-.06.07-.83-.13-1.7,0-2.57a2.52,2.52,0,0,0-2.5-2.5,2.55,2.55,0,0,0-2.5,2.5Z" transform="translate(-27.39 -9.31)"/><path class="cls-6" d="M625.57,167.85c-4,2.44-1.65,7.48,1.38,9.58,3.19,2.22,8.88,2.37,9.55-2.52a7.31,7.31,0,0,0-2.24-5.72c-1.44-1.55-3.76-3.47-5.86-4-5.32-1.28-5.58,6.75-2.95,9.41,1.73,1.75,5,2,6.43-.31a3.65,3.65,0,0,0-2-5.43c-3.06-1-4.38,3.82-1.33,4.82l.28.09-1.1-.64L627.5,172c.46-.91.94-1.22,1.45-.93,0,0-.1-.48-.11-.58,0-.3,0-.6-.07-.9-.1-.9,0-.13,0-.08l-1.11.64c-.42.15-.29,0,.15.27s.63.4.94.62a13.44,13.44,0,0,1,1.83,1.54,4.69,4.69,0,0,1,.91,1.3c.16.33.15.19.14.19-.49.23-1.78-.65-2.13-.93s-.56-.77-.9-1.08c-.65-.62.52-.5-.49.12,2.75-1.68.24-6-2.52-4.32Z" transform="translate(-27.39 -9.31)"/><path class="cls-6" d="M670.63,156.61c-.91,2.51-1.48,6.44.57,8.58s5.23,1,6.37-1.48c2.26-4.86-2.8-11.58-8.14-10.7-3.47.57-3.31,4.23-1.5,6.42,1.67,2,4,3.67,6.75,3,2.51-.58,4.48-3.26,3.14-5.78-1.16-2.18-4.59-3.11-6.28-1a2.58,2.58,0,0,0,0,3.54,2.51,2.51,0,0,0,3.53,0c-1.48.62-2,.07-1.42-1.67a.37.37,0,0,1-.23.05c-.16-.13-.45-.21-.63-.34-.37-.26-.7-.95-1.09-1.12-.58-.66-1.07-.07-1.5,1.79a3.87,3.87,0,0,1,.69.17,3.59,3.59,0,0,1,1.89,1.73,3,3,0,0,1,.32.86c0,.22,0,.44,0,.66-.14.37,0,.35.47-.05l1.26.34c.18.08-.06.29,0,.05s0-.88,0-1.22a8.36,8.36,0,0,1,.58-2.55c1.1-3-3.73-4.33-4.82-1.33Z" transform="translate(-27.39 -9.31)"/><path class="cls-6" d="M654.46,186.19a5.59,5.59,0,0,0,3.06,6.56,6.78,6.78,0,0,0,7.31-1.25c3.18-2.69,6.76-13.8,0-14.38-5.8-.49-9.14,8.95-5.17,12.71a3.69,3.69,0,0,0,6.08-1.29c1.18-3.19-1.85-5.33-4.55-5.91-3.14-.67-4.48,4.15-1.33,4.82,1.51.32,2.43.59,3.06-1.68a13.49,13.49,0,0,1,.51-2.38c.27-.59,1.37-1.28.61-1.42s-.59,1.15-.75,1.95c-.28,1.43-.68,3.14-2,4-.55.36-2.38.75-2-.4.94-3.09-3.89-4.41-4.82-1.33Z" transform="translate(-27.39 -9.31)"/></g><g id="Слой_5" data-name="Слой 5"><path class="cls-7" d="M206.33,290.69c-8.29,7.17-11.08,19-13.26,29.25A135.6,135.6,0,0,0,190.55,358c.23,3.19,5.24,3.21,5,0a130.87,130.87,0,0,1,2-34.95c2-10,4.33-21.91,12.35-28.85,2.44-2.11-1.11-5.63-3.54-3.53Z" transform="translate(-27.39 -9.31)"/><path class="cls-7" d="M163.26,417.51c-7.1,7.5-8,18.65-9.25,28.43a195.89,195.89,0,0,0-.82,39.63c.25,3.19,5.26,3.22,5,0a198.27,198.27,0,0,1,.18-33.85c.92-9.69,1.33-23.18,8.43-30.68,2.21-2.33-1.32-5.87-3.54-3.53Z" transform="translate(-27.39 -9.31)"/><path class="cls-7" d="M447,509.74a124.49,124.49,0,0,0-23.44,28c-1.68,2.76,2.64,5.27,4.32,2.53a119.54,119.54,0,0,1,22.66-27c2.41-2.14-1.14-5.67-3.54-3.53Z" transform="translate(-27.39 -9.31)"/><path class="cls-7" d="M364.86,603.26a90.2,90.2,0,0,0-14.66,24.67c-1.18,3,3.65,4.29,4.83,1.32A82.14,82.14,0,0,1,368.4,606.8c2-2.46-1.48-6-3.54-3.54Z" transform="translate(-27.39 -9.31)"/><path class="cls-7" d="M423.12,730A88,88,0,0,0,428,756c1.06,3,5.89,1.72,4.82-1.33A83.4,83.4,0,0,1,428.12,730c-.11-3.21-5.11-3.23-5,0Z" transform="translate(-27.39 -9.31)"/><path class="cls-7" d="M370.24,142.48a31.41,31.41,0,0,0-6.54,26.84c.66,3.14,5.48,1.81,4.82-1.33a26,26,0,0,1,5.25-22c2-2.49-1.51-6.05-3.53-3.54Z" transform="translate(-27.39 -9.31)"/><path class="cls-7" d="M442.14,161.09A77.9,77.9,0,0,0,421.51,205c-.4,3.19,4.61,3.16,5,0a72.23,72.23,0,0,1,19.16-40.35c2.2-2.34-1.33-5.89-3.53-3.53Z" transform="translate(-27.39 -9.31)"/><path class="cls-7" d="M617.56,528.5,641,558.13c2,2.52,5.51-1,3.53-3.53L621.09,525c-2-2.52-5.51,1-3.53,3.54Z" transform="translate(-27.39 -9.31)"/><path class="cls-7" d="M820.9,616.55a240.38,240.38,0,0,0-22.71,39.7c-1.31,2.91,3,5.45,4.32,2.52a239,239,0,0,1,22.71-39.7c1.86-2.63-2.47-5.14-4.32-2.52Z" transform="translate(-27.39 -9.31)"/><path class="cls-7" d="M508.21,857.45c-10.83-.56-17.65,9-23.55,16.74q-12.54,16.35-23.37,33.9c-1.7,2.74,2.62,5.26,4.32,2.52q8.86-14.33,18.86-27.91c5.51-7.46,13-20.81,23.74-20.25,3.22.16,3.21-4.84,0-5Z" transform="translate(-27.39 -9.31)"/><path class="cls-7" d="M232.64,692.24C212.28,703,199,724.92,200,748.08c.13,3.21,5.13,3.22,5,0-.88-21.5,11.3-41.51,30.18-51.52,2.84-1.51.32-5.83-2.52-4.32Z" transform="translate(-27.39 -9.31)"/><path class="cls-7" d="M765.57,779.5c-.26,0-2.06,7.82-2.42,9q-1.75,5.56-3.83,11A202.36,202.36,0,0,1,749.56,821c-1.49,2.85,2.83,5.38,4.32,2.52a209.31,209.31,0,0,0,13.55-32c1.29-4,6.48-18.63-3.19-16.82-3.16.59-1.82,5.41,1.33,4.82Z" transform="translate(-27.39 -9.31)"/><path class="cls-7" d="M559.42,555.13a179.09,179.09,0,0,0,18.07,51c1.52,2.84,5.84.31,4.32-2.53a174.63,174.63,0,0,1-17.57-49.82c-.6-3.16-5.42-1.82-4.82,1.33Z" transform="translate(-27.39 -9.31)"/><path class="cls-7" d="M416.59,382.54a120.88,120.88,0,0,0-21.5,42.6c-.85,3.1,4,4.43,4.82,1.33a114.84,114.84,0,0,1,20.21-40.39c2-2.51-1.55-6.08-3.53-3.54Z" transform="translate(-27.39 -9.31)"/><path class="cls-7" d="M322.72,364.31a43.21,43.21,0,0,0-10,17.39c-.92,3.1,3.91,4.42,4.82,1.33a37.64,37.64,0,0,1,8.72-15.19c2.2-2.35-1.33-5.89-3.53-3.53Z" transform="translate(-27.39 -9.31)"/><path class="cls-7" d="M698.68,226.68a100,100,0,0,0,3.71,36.89c.91,3.08,5.73,1.77,4.82-1.33a96.24,96.24,0,0,1-3.53-35.56c.28-3.21-4.73-3.19-5,0Z" transform="translate(-27.39 -9.31)"/><path class="cls-7" d="M728.47,116.86l23.4,40.24c1.62,2.78,5.94.26,4.32-2.53l-23.4-40.24c-1.62-2.78-5.94-.26-4.32,2.53Z" transform="translate(-27.39 -9.31)"/><path class="cls-7" d="M876.89,419l32,60.6c1.51,2.84,5.82.32,4.32-2.53l-32-60.59c-1.5-2.85-5.82-.33-4.32,2.52Z" transform="translate(-27.39 -9.31)"/><path class="cls-7" d="M859.18,687.07l-29.59,32.52c-2.16,2.38,1.36,5.93,3.54,3.54l29.58-32.53c2.16-2.37-1.36-5.92-3.53-3.53Z" transform="translate(-27.39 -9.31)"/><path class="cls-7" d="M688.05,506.28a193.57,193.57,0,0,0,24.63,43.82c1.91,2.55,6.25.06,4.32-2.52A188.64,188.64,0,0,1,692.87,505c-1.19-2.95-6-1.66-4.82,1.33Z" transform="translate(-27.39 -9.31)"/></g><g id="ingridients"><path class="cls-3" d="M341,229.3c-17.51-2.11-17.87,5.52-29.37,18.72s-16.68,31.19-15.56,48.57c.36,5.67,1.44,11.49,4.67,16.18,3.41,4.92,8.81,8.07,14.08,11,11.79,6.5,24,12.7,37.28,15.18s27.87.83,38.65-7.19c12.66-9.41,18-26.53,15.42-42s-12.29-29.09-24.51-39-26.9-16.53-41.8-21.86" transform="translate(-27.39 -9.31)"/><path class="cls-4" d="M341,226.8c-9.05-1-16.09.7-22,7.86-7,8.55-14.71,17.24-19.27,27.41a72.72,72.72,0,0,0-6.05,36.23c.52,5.5,1.72,11.08,4.89,15.73,3.66,5.39,9.39,8.78,15,11.88,21.74,12,48.75,23.72,73,11.36,21.15-10.78,27.26-37.63,19.09-58.64-10.84-27.86-38.55-42.56-65.14-52.15-3-1.09-4.34,3.74-1.33,4.82,21.42,7.73,43.38,18.45,56.17,38.17,11.46,17.68,13.07,42.91-3.55,58.15-18.38,16.86-46,9.18-65.62-.67-10.34-5.18-23.12-10.42-26.45-22.57-2.93-10.69-1.35-23.34,2-33.73,3.64-11.22,10.74-19.3,17.74-28.49,2.32-3,4.63-6.6,7.95-8.68,4-2.54,9-2.16,13.55-1.68,3.19.35,3.17-4.66,0-5Z" transform="translate(-27.39 -9.31)"/><path class="cls-6" d="M337.77,256.73c-2.81-1.75-6.17.95-6.06,4a5.29,5.29,0,0,0,10.58-.25,5.29,5.29,0,0,0-5.61-4.95,2.56,2.56,0,0,0-2.5,2.5,2.53,2.53,0,0,0,2.5,2.5,1.43,1.43,0,0,1,.45,0c-.18,0,.37.27.14,0a.33.33,0,0,1,.06-.19c-.07.3-.09.37-.06.2s-.31.27-.1.14c-.05,0-.42,0-.11.07a1.06,1.06,0,0,1-.39-.27c.18.2.09-.27,0-.09-.2.59-.54,1.2-1.46.63,2.74,1.7,5.26-2.62,2.53-4.32Z" transform="translate(-27.39 -9.31)"/><path class="cls-6" d="M315.35,283.4a5.53,5.53,0,0,0-1.94,6.77,6.34,6.34,0,0,0,6.69,3.45,4.48,4.48,0,0,0,3.67-6.22c-.94-2.53-2.7-4.7-5.53-4.92a2.51,2.51,0,0,0-2.5,2.5,2.55,2.55,0,0,0,2.5,2.5s.58,1,.66,1.18c0,0,.38.79.25.78.55-.56.65-.81.31-.76a.33.33,0,0,1-.22,0c-.43-.16-.93,0-1.24-.47-.09-.13,0-.58-.13-.51a2.59,2.59,0,0,0,.9-3.42,2.51,2.51,0,0,0-3.42-.9Z" transform="translate(-27.39 -9.31)"/><path class="cls-6" d="M379.65,295a5.67,5.67,0,0,0,4.43,9.82c5.34-.48,6.58-7.2,4.82-11.32-2.17-5.11-9-5-10.78.3-1.67,4.91,2.46,10.27,7.77,8.53a6.29,6.29,0,0,0,4.09-4.77c.51-2.73-1.17-5.48-3.19-7.2-4.11-3.49-9.58-1.3-10.74,3.81a7.88,7.88,0,0,0,1.31,6.67c1.79,2.15,4.6,2.5,7.23,2.22,2.45-.25,4.59-1.14,5.8-3.41a7,7,0,0,0-.43-7c-3-4.72-10.88-6.7-13.84-.88a7.24,7.24,0,0,0,8,10.48c3.13-.75,1.81-5.58-1.33-4.83-2.1.51-3.28-2.09-2.07-3.68s4.31.32,5.06,1.71c1.13,2.05-.78,2.62-2.47,2.66-1,0-1.92,0-2.36-1a3.57,3.57,0,0,1,.22-2.7c1-2,3.7.14,3.85,1.78.18,2-2.79,1.64-2.27-.59.25-1.09.91-1.46,1.54-.32a5.21,5.21,0,0,1,.28,2.95c-.4,2.25-2.59,1.35-1.4.22,2.34-2.21-1.2-5.75-3.54-3.53Z" transform="translate(-27.39 -9.31)"/><path class="cls-6" d="M358.54,266.77a7,7,0,0,0-1.72,7,5.9,5.9,0,0,0,5.78,3.82c5.53-.33,7.12-8.62,3.62-12.11a5.22,5.22,0,0,0-6.59-.68c-2.13,1.54-2.41,4.76-1.55,7.08.94,2.57,3.8,4.3,6.46,3.1,2.34-1.07,3-3.68,3-6,0-3.22-5-3.23-5,0a8.36,8.36,0,0,1-.17,1.63c.7.51.33-.85.33-.9a6.62,6.62,0,0,1,0-.89c0-.35-.17,0-.13.13.12.28.32.27.44.85s.08,2.84-.81,2.85c-1.29,0-.5-1.84-.11-2.28,2.13-2.4-1.4-5.95-3.54-3.53Z" transform="translate(-27.39 -9.31)"/><path class="cls-6" d="M347.86,315.07c-2.68-.24-5.84.79-6,4s3,4.73,5.69,5,6,0,8.07-2.18a5.2,5.2,0,0,0,0-7.35,10.32,10.32,0,0,0-7.33-2.41,4.1,4.1,0,0,0-3.39,6c1.22,2.47,4.66,3.5,7.23,3,2.87-.52,4.6-4,2.21-6.2s-5.91,1.35-3.53,3.54c.83-1.57.72-2.34-.36-2.32a4,4,0,0,1-1.1-.32c-.82.87-.91,1.29-.28,1.28a4.51,4.51,0,0,1,.72.12c.41.08,2.39.51,2.42.94.07,1.12-2.89,1-3.39,1s-1.44-.32-1.69-.19c-.77.79-.84,1.14-.21,1.06a7.73,7.73,0,0,1,1,.06c3.2.28,3.19-4.72,0-5Z" transform="translate(-27.39 -9.31)"/><path class="cls-6" d="M336.9,289.27c-3.52,1.65-2.8,6.54,0,8.43s8.36,2.1,9.51-1.76c1-3.23-1.8-7.44-5.21-7.57a3.82,3.82,0,0,0-4.05,3.38,3.56,3.56,0,0,0,3.52,3.81c3.22,0,3.22-5,0-5,1.52.56,1.86,1.26,1,2.1q-.09.78-.66.66c.06-.05-.32.06-.25-.07s.68.89.72,1c-.08-.2.05.22.05.22.27.71-.05.16,0,.11A4.69,4.69,0,0,0,342,294l.16-.06h-.56a3.13,3.13,0,0,1-2.2-.62c.29.28-.09,0,.07-.14a2.17,2.17,0,0,0-.08.3c-.07.14-.51.34,0,.1a2.52,2.52,0,0,0,.9-3.42,2.56,2.56,0,0,0-3.42-.9Z" transform="translate(-27.39 -9.31)"/></g><g id="Слой_4" data-name="Слой 4"><path class="cls-3" d="M153,552.11c-16.13,6.9-12.36,13.62-15.18,30.66s2.36,35,12.59,49.37c3.33,4.67,7.35,9.13,12.63,11.53,5.54,2.53,11.86,2.53,17.92,2.4,13.57-.29,27.35-1.07,40-5.55s24.33-13.17,29.29-25.41c5.82-14.37,1.3-31.71-9.17-43.63S215,552.67,199.25,550.23s-31.87-.76-47.48,2.09" transform="translate(-27.39 -9.31)"/><path class="cls-4" d="M151.7,550c-7.56,3.35-13,7.91-14.47,16.34-.62,3.69-.79,7.45-1.22,11.17-.77,6.67-1.84,13-1.28,19.81a73.16,73.16,0,0,0,12.53,34.78c7.15,10.49,15.75,16.24,28.66,16.55,24.52.59,54.64-2.17,71-22.93,14.81-18.79,8.3-45.29-8.51-60.46-23.78-21.46-57.75-20.61-87.3-15.3-3.16.57-1.82,5.39,1.33,4.82,23.95-4.3,50-5.8,72,6.59,18.55,10.46,33.09,34.11,22.46,55.19-10.72,21.27-37.11,25.91-58.54,26.83-12.6.55-24.43,1.2-33.31-9.23a67.72,67.72,0,0,1-14.35-30.28c-2.2-11-.16-21.62.94-32.58.33-3.26.62-6.77,2.36-9.64,2.24-3.7,6.44-5.66,10.25-7.34,2.93-1.3.39-5.61-2.53-4.32Z" transform="translate(-27.39 -9.31)"/><path class="cls-3" d="M305,729c-17.5-2.12-17.86,5.51-29.37,18.71s-16.67,31.2-15.55,48.57c.36,5.67,1.43,11.49,4.67,16.18,3.4,4.92,8.81,8.07,14.08,11,11.78,6.51,24,12.7,37.27,15.18s27.88.83,38.66-7.19c12.65-9.41,18-26.53,15.42-42s-12.29-29.08-24.51-39-26.91-16.53-41.8-21.86" transform="translate(-27.39 -9.31)"/><path class="cls-4" d="M305,726.53c-9-1-16.08.69-22,7.85-7,8.55-14.71,17.25-19.27,27.42A72.66,72.66,0,0,0,257.75,798c.52,5.51,1.72,11.09,4.88,15.73,3.67,5.39,9.4,8.78,15,11.88,21.73,12,48.75,23.72,73,11.36,21.15-10.78,27.27-37.63,19.09-58.64-10.83-27.86-38.54-42.55-65.13-52.15-3-1.09-4.34,3.74-1.33,4.83,21.42,7.72,43.38,18.44,56.17,38.16,11.46,17.68,13.07,42.91-3.55,58.16-18.38,16.85-46,9.17-65.62-.68-10.35-5.18-23.12-10.42-26.45-22.57-2.93-10.69-1.35-23.34,2-33.73,3.64-11.22,10.74-19.3,17.74-28.49,2.32-3,4.63-6.59,7.95-8.68,4-2.54,9-2.16,13.54-1.67,3.2.34,3.18-4.66,0-5Z" transform="translate(-27.39 -9.31)"/><path class="cls-3" d="M593.28,729c-17.51-2.12-17.86,5.51-29.37,18.71s-16.67,31.2-15.56,48.57c.37,5.67,1.44,11.49,4.68,16.18,3.4,4.92,8.81,8.07,14.07,11,11.79,6.51,24,12.7,37.28,15.18s27.87.83,38.65-7.19c12.66-9.41,18-26.53,15.42-42s-12.28-29.08-24.51-39-26.9-16.53-41.8-21.86" transform="translate(-27.39 -9.31)"/><path class="cls-4" d="M593.28,726.53c-9-1-16.09.69-22,7.85-7,8.55-14.71,17.25-19.27,27.42A72.65,72.65,0,0,0,546,798c.51,5.51,1.72,11.09,4.88,15.73,3.67,5.39,9.39,8.78,15,11.88,21.74,12,48.75,23.72,73,11.36,21.15-10.78,27.26-37.63,19.09-58.64-10.84-27.86-38.55-42.55-65.14-52.15-3-1.09-4.33,3.74-1.33,4.83,21.43,7.72,43.39,18.44,56.17,38.16,11.47,17.68,13.08,42.91-3.55,58.16-18.37,16.85-46,9.17-65.61-.68-10.35-5.18-23.13-10.42-26.46-22.57-2.93-10.69-1.34-23.34,2-33.73,3.63-11.22,10.74-19.3,17.73-28.49,2.33-3,4.63-6.59,8-8.68,4-2.54,9-2.16,13.55-1.67,3.19.34,3.17-4.66,0-5Z" transform="translate(-27.39 -9.31)"/><path class="cls-3" d="M478.29,587.23c-17.51-2.12-17.86,5.51-29.37,18.71s-16.67,31.19-15.55,48.57c.36,5.67,1.43,11.49,4.67,16.18,3.4,4.92,8.81,8.07,14.08,11,11.78,6.5,24,12.7,37.27,15.18s27.88.83,38.66-7.19c12.65-9.41,18-26.53,15.42-42s-12.29-29.08-24.52-39-26.9-16.53-41.8-21.86" transform="translate(-27.39 -9.31)"/><path class="cls-4" d="M478.29,584.73c-9-1-16.09.69-22,7.85-7,8.55-14.71,17.25-19.27,27.42A72.66,72.66,0,0,0,431,656.22c.52,5.51,1.72,11.09,4.88,15.73,3.67,5.39,9.4,8.78,15,11.88,21.73,12,48.74,23.72,73,11.36C545,684.41,551.13,657.56,543,636.55c-10.83-27.86-38.54-42.55-65.13-52.15-3-1.09-4.34,3.74-1.33,4.82,21.42,7.73,43.38,18.45,56.17,38.17,11.46,17.68,13.07,42.91-3.55,58.16-18.38,16.85-46,9.17-65.62-.68-10.35-5.18-23.12-10.42-26.45-22.57-2.93-10.69-1.35-23.34,2-33.73,3.64-11.22,10.74-19.3,17.74-28.49,2.32-3.05,4.63-6.59,7.95-8.68,4-2.54,9-2.16,13.54-1.67,3.2.34,3.18-4.66,0-5Z" transform="translate(-27.39 -9.31)"/><path class="cls-3" d="M297.89,429c-17.51-2.11-17.86,5.51-29.37,18.71s-16.67,31.2-15.56,48.58c.37,5.66,1.44,11.48,4.68,16.17,3.4,4.93,8.81,8.08,14.08,11,11.78,6.5,24,12.69,37.27,15.18s27.87.83,38.66-7.19c12.65-9.42,18-26.53,15.41-42s-12.28-29.09-24.51-39-26.9-16.53-41.8-21.85" transform="translate(-27.39 -9.31)"/><path class="cls-4" d="M297.89,426.45c-9-1-16.09.7-22,7.86-7,8.55-14.71,17.24-19.28,27.41a72.69,72.69,0,0,0-6,36.22c.51,5.51,1.72,11.09,4.88,15.74,3.67,5.39,9.39,8.78,15,11.87,21.74,12.06,48.75,23.73,73,11.37,21.15-10.78,27.26-37.64,19.09-58.64-10.84-27.86-38.55-42.56-65.13-52.15-3-1.09-4.34,3.74-1.33,4.82,21.42,7.73,43.38,18.44,56.17,38.17,11.46,17.68,13.07,42.91-3.56,58.15-18.37,16.85-45.95,9.17-65.61-.67C272.74,521.42,260,516.17,256.63,504c-2.93-10.7-1.34-23.34,2-33.74,3.64-11.22,10.74-19.3,17.73-28.48,2.33-3.05,4.64-6.6,7.95-8.68,4-2.54,9-2.16,13.55-1.68,3.2.34,3.17-4.66,0-5Z" transform="translate(-27.39 -9.31)"/><path class="cls-3" d="M676,594.6c-17.51-2.11-17.86,5.52-29.37,18.71s-16.67,31.2-15.56,48.58c.37,5.67,1.44,11.49,4.68,16.18,3.4,4.92,8.8,8.07,14.07,11,11.79,6.5,24,12.69,37.28,15.18s27.87.83,38.65-7.19c12.66-9.42,18-26.53,15.42-42s-12.28-29.09-24.51-39-26.9-16.53-41.8-21.86" transform="translate(-27.39 -9.31)"/><path class="cls-4" d="M676,592.1c-9-1-16.09.7-22,7.86-7,8.55-14.71,17.24-19.27,27.41a72.69,72.69,0,0,0-6,36.22c.51,5.51,1.72,11.09,4.88,15.74,3.67,5.39,9.39,8.78,15,11.88,21.74,12,48.75,23.72,73,11.36,21.15-10.78,27.26-37.64,19.09-58.64-10.84-27.86-38.55-42.56-65.14-52.15-3-1.09-4.33,3.74-1.33,4.82,21.43,7.73,43.39,18.45,56.17,38.17,11.47,17.68,13.08,42.91-3.55,58.15-18.37,16.85-46,9.18-65.61-.67-10.35-5.18-23.13-10.42-26.46-22.57-2.93-10.7-1.34-23.34,2-33.73,3.63-11.22,10.74-19.3,17.73-28.49,2.33-3.05,4.63-6.6,7.95-8.68,4-2.54,9-2.16,13.55-1.68,3.19.35,3.17-4.66,0-5Z" transform="translate(-27.39 -9.31)"/><path class="cls-3" d="M797.93,457.83c-17.51-2.12-17.86,5.51-29.37,18.71s-16.67,31.2-15.56,48.58c.37,5.66,1.44,11.48,4.68,16.17,3.4,4.93,8.81,8.08,14.08,11,11.78,6.51,24,12.7,37.27,15.18s27.87.84,38.66-7.18c12.65-9.42,18-26.53,15.41-42s-12.28-29.09-24.51-39-26.9-16.53-41.8-21.85" transform="translate(-27.39 -9.31)"/><path class="cls-4" d="M797.93,455.33c-9-1-16.09.7-22,7.86-7,8.55-14.71,17.24-19.28,27.41a72.67,72.67,0,0,0-6,36.22c.51,5.51,1.72,11.09,4.88,15.73,3.67,5.39,9.39,8.79,15,11.88,21.74,12.06,48.75,23.72,73,11.37,21.15-10.78,27.26-37.64,19.09-58.64C851.75,479.3,824,464.6,797.46,455c-3-1.1-4.34,3.73-1.33,4.82,21.42,7.73,43.38,18.44,56.16,38.17,11.47,17.68,13.08,42.91-3.55,58.15-18.37,16.85-46,9.17-65.61-.67-10.35-5.19-23.13-10.43-26.46-22.57-2.93-10.7-1.34-23.34,2-33.74,3.63-11.22,10.74-19.3,17.73-28.48,2.33-3.05,4.64-6.6,8-8.69,4-2.54,9-2.16,13.55-1.67,3.19.34,3.17-4.66,0-5Z" transform="translate(-27.39 -9.31)"/><path class="cls-6" d="M187.8,576.78c-4-3.74-11-.57-10.15,5.06.87,5.87,8.21,7.22,12,3.24,3.49-3.63,1.81-10.36-3.12-11.74-5.12-1.43-10.19,4.56-7.3,9.25,1.68,2.73,6,.22,4.31-2.53-.59-1,.75-2.19,1.75-1.87a2.3,2.3,0,0,1,1,3.12c-.71,1.19-2.77,1.69-3.56.34a1,1,0,0,1,1.49-1.34c2.35,2.2,5.9-1.33,3.54-3.53Z" transform="translate(-27.39 -9.31)"/><path class="cls-6" d="M174.48,622.24c.87,4.16,6.27,6.37,9.78,3.94s3.65-8.22-.2-10.41-9.47.05-9.6,4.73a4.17,4.17,0,0,0,4,4.41,4.57,4.57,0,0,0,4.18-3.62,4,4,0,0,0-4.28-4.73c-2.42.18-4.78,2.44-4.45,5a2.58,2.58,0,0,0,2.5,2.5,2.51,2.51,0,0,0,2.5-2.5c-.11-.88.05.16-.18,0-.42-.24-1.3-.21-1-1.21,0-.11,0-.21.1-.3a.92.92,0,0,1,.61-.15c.61,0,.95.29,1,.77-.15,0,.48-.58.54-.61a1.71,1.71,0,0,1,1.54,0,1.27,1.27,0,0,1-.08,2c-.87.58-2-.28-2.16-1.14-.65-3.15-5.47-1.82-4.82,1.33Z" transform="translate(-27.39 -9.31)"/><path class="cls-6" d="M214.07,607.73c-2.65,2.09-2.26,6.34.1,8.48,2.9,2.61,7.45,1.22,9.33-1.92,2.06-3.42.12-7.69-3.21-9.44a6,6,0,0,0-5.18-.39A3.77,3.77,0,0,0,212.7,609c.88,3.09,5.7,1.77,4.82-1.33h0L217.2,609c-.15.32-.16-.09.29.12a3.53,3.53,0,0,1,1.28.81,1.49,1.49,0,0,1,.13,2.22c-1,1-2.36,0-1.3-.84a2.52,2.52,0,0,0,0-3.54,2.55,2.55,0,0,0-3.53,0Z" transform="translate(-27.39 -9.31)"/><path class="cls-6" d="M217.29,579.3a6.16,6.16,0,0,0-.77,6.23,5.06,5.06,0,0,0,5.13,2.73,4.1,4.1,0,0,0-.23-8.14,2.51,2.51,0,0,0-2.5,2.5,2.55,2.55,0,0,0,2.5,2.5,1.26,1.26,0,0,1-1.22-.8c.18.37,0-.16,0-.37-.08.27-.07.25,0-.07a1,1,0,0,1,.63-.54.56.56,0,0,1,.36,0q-.39-.12-.18,0c.14.07.09,0-.16-.1.17.14.15.1-.07-.1.22.26.06.2.14.11a6,6,0,0,1,.13-.67,5.76,5.76,0,0,1,.5-.76,2.52,2.52,0,0,0-.9-3.42,2.55,2.55,0,0,0-3.42.9Z" transform="translate(-27.39 -9.31)"/><path class="cls-6" d="M294.11,460.63c-3.29,4,1.16,10.08,6,7.47a5.38,5.38,0,0,0,2.71-6.18c-.73-2.62-3.15-4-5.68-4.29a2.41,2.41,0,0,0-2.16,1.24,12.49,12.49,0,0,0,0,10.65,2.5,2.5,0,0,0,3.42.9c2.65-2.05,3.35-5.89.7-8.33-2.37-2.17-5.91,1.36-3.54,3.54.12.11.37.43.31.47l3.42.9a7,7,0,0,1,0-5.61l-2.16,1.24c.25,0,.8.33.86.61.12.6-.11,0-.11.36,0,0-.11.37,0,.16s-.15.34-.21.41a2.57,2.57,0,0,0,0-3.54,2.51,2.51,0,0,0-3.53,0Z" transform="translate(-27.39 -9.31)"/><path class="cls-6" d="M283.38,492.89a6,6,0,0,0-1,6.91,2.53,2.53,0,0,0,3.42.89c3.51-1.88,3.52-7.41.07-9.36-4-2.25-9.23,2-7.8,6.33a2.56,2.56,0,0,0,3.68,1.5c2.67-1.24,2.64-5.51,0-6.78a2.57,2.57,0,0,0-3.42.9,2.52,2.52,0,0,0,.9,3.42q.57.32-.3-.36a.86.86,0,0,1-.15-.79c.06-.32,1-1,.42-.71l3.68,1.49c-.23-.67-.05.21-.07-.17,0-.18,0-.16,0,.07l.08-.23-.05.15q.22-.33.09-.15c-.18.19.38-.32,0-.06a3.07,3.07,0,0,1,.43-.26c-.34.19.25,0,0,0s-.12,0,.16,0h-.17l-.15-.09c.21.13.25.15.11,0-.22-.32.33.47-.06-.1a2.22,2.22,0,0,1,.21.37c-.23-.5,0,0,0,.11s0,.14,0-.13v.43c0-.28,0-.32,0-.14a.66.66,0,0,1-.06.2c-.06.18,0,.14,0-.11-.37.2.12,0,0,0-.18.17-.2.2-.07.08s.1-.1-.12,0l3.42.89c0,.08,0-.37,0-.25a.77.77,0,0,1,.3-.6c2.24-2.31-1.29-5.85-3.54-3.53Z" transform="translate(-27.39 -9.31)"/><path class="cls-6" d="M330.31,495.23c-6.71,1.31-10.56,10.07-6.3,15.68a2.54,2.54,0,0,0,4.32,0c1.9-3,3.26-8.38-1.38-9.62-2.95-.79-6.5,1.4-5.51,4.73.91,3.07,5.74,1.76,4.82-1.33q-1.61,1.68-.69,1.44c.23,0,.11-.06-.37-.05-.46.68-.73,1.58-1.19,2.31h4.32a5.29,5.29,0,0,1,3.31-8.34c3.15-.62,1.82-5.44-1.33-4.82Z" transform="translate(-27.39 -9.31)"/><path class="cls-6" d="M307.18,478.78c-1.61,2.52-3.06,5.88-2.92,8.94a4,4,0,0,0,6.29,3.24,8.1,8.1,0,0,0,3.77-7.47c-.46-3.05-4.4-4.89-6.68-2.41s1.35,5.91,3.53,3.54c-1.12-.84-1.74-.87-1.85-.08a7.76,7.76,0,0,1-.25.82,3.61,3.61,0,0,1-.45.72c-.13.15-.53.41-.6.56q-.37.19.12.06c.75.81,1.13.94,1.14.38.42-.65.44-2.09.72-2.87a14.85,14.85,0,0,1,1.5-2.91c1.74-2.72-2.59-5.23-4.32-2.52Z" transform="translate(-27.39 -9.31)"/><path class="cls-6" d="M329.28,497.21a8.69,8.69,0,0,0-1.7,10.46,2.58,2.58,0,0,0,2.83,1.14,6.58,6.58,0,0,0,5.37-5.53,6.39,6.39,0,0,0-4.11-6.89c-6-2.44-11.82,3.49-9.77,9.47,1,3,5.87,1.73,4.82-1.33-.64-1.89.48-4.28,2.78-3.63,2.1.6,1.49,2.84-.42,3.09l2.82,1.15a3.61,3.61,0,0,1,.91-4.4c2.36-2.2-1.18-5.73-3.53-3.53Z" transform="translate(-27.39 -9.31)"/><path class="cls-6" d="M479,612.18a5.27,5.27,0,0,0-.79,7.93c2.37,2.52,6.48,1.93,8.79-.33a7.58,7.58,0,0,0,2.07-4.72c.15-1.65,0-4.15-1.55-5.13a5.82,5.82,0,0,0-8,2.26c-1.41,2.88,2.9,5.42,4.32,2.53.25-.51.69-.74,1.17-.47l-1.14-1.49c.36,1.3.54,3.35-1.07,3.91-.46.15-.75.17-1-.09.13.13-.21-.34,0-.21-.19-.14.41-.32-.21.13a2.58,2.58,0,0,0,.9-3.42,2.51,2.51,0,0,0-3.42-.9Z" transform="translate(-27.39 -9.31)"/><path class="cls-6" d="M474.52,653.09a3.87,3.87,0,0,0-3.48,5.06c.79,2.5,3.61,3.33,5.92,2.5,4.33-1.55,6.16-7.6,2.88-11-3.11-3.27-9.29-1-9.5,3.58-.11,2.14,1.35,4.79,3.77,4.79,2.87,0,4.4-3.92,2.07-5.72a2.57,2.57,0,0,0-3.53,0,2.51,2.51,0,0,0,0,3.53l-.24-.42V654l.26-.4,1.11-.65-.33.08h1.31l.9.9c-.09-.12-.13-.62-.33-.72s0-.1,0,.08c-.13.42.09,0,.15,0,.53-.23.55-.52.84-.17a1.86,1.86,0,0,1,0,1.84c-.23.46-.6.55-.88.91,0,0-.31.07-.31.09a.91.91,0,0,1,.7.7c.29.67-.14,1.13-1.28,1.4,3.18-.25,3.21-5.26,0-5Z" transform="translate(-27.39 -9.31)"/><path class="cls-6" d="M499.9,653c-.39,3.54,2.74,6.64,6.13,7a4.11,4.11,0,0,0,4.38-2.32,8,8,0,0,0-1.33-9.07c-1.56-1.63-3.18-1.72-5.06-.56a4.61,4.61,0,0,0-2.43,4.35,3.82,3.82,0,0,0,3.78,3.48c3.22.06,3.22-4.94,0-5v0l1.11.64c-.22,0-.24.18-.09.51-.13.49-.09.62.14.38.2,0,.95-.49,1.13-.57h-2.52a2.87,2.87,0,0,1,.7,3.81l1.11-.64A1.68,1.68,0,0,1,504.9,653a2.53,2.53,0,0,0-2.5-2.5,2.55,2.55,0,0,0-2.5,2.5Z" transform="translate(-27.39 -9.31)"/><path class="cls-6" d="M493.73,668a9.9,9.9,0,0,0-.08,9.68,2.52,2.52,0,0,0,3.93.5,7.55,7.55,0,0,0,2.14-5.68,5.25,5.25,0,0,0-3.68-4.43c-3.93-1-7.56,4.07-4.25,7,2.39,2.13,5.94-1.39,3.53-3.54a.85.85,0,0,1-.05,1.21l-.56.13c-.13-.08-.13-.06,0,.07a4.17,4.17,0,0,1,0,.5,2.76,2.76,0,0,1-.69,1.19l3.93.5a4.69,4.69,0,0,1,.08-4.63c1.58-2.81-2.74-5.33-4.32-2.52Z" transform="translate(-27.39 -9.31)"/><path class="cls-6" d="M668.53,621.51c-1.5,4.4,4.48,7.18,7.56,4.32,3.43-3.19,1.18-7.57-1.2-10.53-1-1.27-3.19-.77-3.92.51L667.39,622c-1.61,2.8,2.71,5.32,4.31,2.53l3.58-6.23-3.92.51c.57.7,1.61,1.82,1.52,2.8,0,.05-.22.54-.22.55s.49,0,.41-.08.37.48.28.73c1-3.05-3.78-4.36-4.82-1.33Z" transform="translate(-27.39 -9.31)"/><path class="cls-6" d="M677.48,660.59c-3.82-1.61-7.92,2.84-6.7,6.56s6.55,4.39,9.33,1.91c3.16-2.81,1.71-8-1.72-9.84-3.7-2-9.67,1.26-7.31,5.76,1.5,2.85,5.81.33,4.32-2.52a1.26,1.26,0,0,1,0,1.18c-.17.17-.14.15.08-.07-.13,0,.28-.06.4-.07-.38,0,0,0,0,0a2.43,2.43,0,0,1,.65.52c-.16-.2.36.69.25.4,0,.09.13.76.11.45q0,.48,0,.18c-.08.29-.1.36-.06.2-.15.25-.17.28-.06.08s.17-.1-.08.06-.29.16-.08.06a3,3,0,0,1-.49.13c.55-.1-.76-.08-.18,0-.07,0-.7-.26-.33-.07-.25-.16-.27-.17-.08,0-.2-.21-.22-.23,0-.07.29.4-.25.39.09.19-.14.08.07-.13.18-.24s.36-.32.23-.14a.44.44,0,0,1-.32,0,1.85,1.85,0,0,1,.5.17,2.51,2.51,0,0,0,3.07-1.75,2.55,2.55,0,0,0-1.74-3.07Z" transform="translate(-27.39 -9.31)"/><path class="cls-6" d="M706.05,650.11l.56,2.43a2.52,2.52,0,0,0,3.07,1.74,2.55,2.55,0,0,0,1.75-3.07c-.39-2.66-3-4.17-5.52-4.35a5.65,5.65,0,0,0-5.93,3.77c-1.05,3,3.78,4.36,4.82,1.33,0,.09.06,0,.12,0-.34.09.84-.14.23-.07a3.85,3.85,0,0,1,.76,0c-.44-.05.28.09.32.11-.41-.19.23.14.29.15-.23,0,0,.17,0-.09.14.25.15.26,0,0a4,4,0,0,1,.09.48l4.82-1.33-.56-2.43c-.72-3.14-5.54-1.81-4.82,1.33Z" transform="translate(-27.39 -9.31)"/><path class="cls-6" d="M653.55,650.89c-2.22-2.21-5.69-1.31-7.37,1.09a4.61,4.61,0,0,0,2.13,6.89,6.25,6.25,0,0,0,7.45-2,7.6,7.6,0,0,0-.28-8.62,2.54,2.54,0,0,0-3.42-.9,6.4,6.4,0,0,0-2.91,7.17c.85,3.1,5.67,1.78,4.82-1.33a1.25,1.25,0,0,1,.62-1.52l-3.42-.9a3.42,3.42,0,0,1,.77,2.66,1,1,0,0,1-1.2.91s-.69,0-.66-.22c0,0,.23.14.22.26a4,4,0,0,0,0,.43c0,.09.22-.21,0-.05.48-.38-.12.2.31-.24-.18.06-.18.07,0,0s.16-.05-.07,0a1.09,1.09,0,0,1-.49-.16c2.29,2.26,5.82-1.27,3.54-3.54Z" transform="translate(-27.39 -9.31)"/><path class="cls-6" d="M708.38,679.53a5.67,5.67,0,0,0-6.64,4.56,5,5,0,0,0,1.22,4.52c1.45,1.47,3.71.85,5-.48,2.11-2.12,2-6.16-.65-7.81-2.91-1.85-6.51.28-7.28,3.39-.45,1.86.29,4.54,2.37,5.11s4.56-1.09,5.46-2.89a2.56,2.56,0,0,0-.89-3.42,2.53,2.53,0,0,0-3.42.9c-.08.15-.21.36-.17.33-.13.1-.47.18-.32.17l1.77.73c-.34-.31,0,.1.06.26-.19-.43,0,.27,0,0s0-.14,0,.16l.06-.21q.12-.35,0-.09c-.07.17,0,.14.07-.08l-.07.08a2.5,2.5,0,0,1,.23-.23c-.31.29.14,0-.11.07s-.14.07.09,0l-.26,0c-.28-.07-.32-.07-.14,0s.15,0-.12-.07c-.37-.31,0,.09-.15-.15s-.12-.15,0,0l-.1-.26s.24.82,0,.08c0,.14-.05.76,0,.1,0,.08-.18.6,0,.26s-.08.14-.14.2c.42-.43-.33,0,.23-.26-.4.2.23,0,.35-.06l1.77.74c-.2-.21-.21-.21,0,0-.12-.22-.13-.24,0-.07s.07.15,0-.08c0,.3,0,.36,0,.17s0-.21,0-.31c0,.32,0,.34,0,0s-.17.16.08-.19c.07-.1.45-.52.1-.19.15-.14.49-.36.14-.15.3-.18.47-.11.15-.1.29-.07.27-.07,0,0,.29,0,.28,0,0,0a2.57,2.57,0,0,0,3.08-1.74,2.53,2.53,0,0,0-1.75-3.08Z" transform="translate(-27.39 -9.31)"/><path class="cls-6" d="M798.42,501.76a10.85,10.85,0,0,0,2.93-10.7,2.52,2.52,0,0,0-3.07-1.74,5.85,5.85,0,0,0-3.29,8.55l2.82-3.67-3.32-.9c-3.11-.85-4.44,4-1.33,4.82l3.32.9a2.52,2.52,0,0,0,2.82-3.67.77.77,0,0,1,.31-1.21l-3.08-1.75a5.76,5.76,0,0,1-1.65,5.84c-2.31,2.24,1.23,5.77,3.54,3.53Z" transform="translate(-27.39 -9.31)"/><path class="cls-6" d="M791.42,526.09c.41,1.47-.18,2.92-.22,4.41a7.43,7.43,0,0,0,.61,3.12,4.9,4.9,0,0,0,5.63,3.06c4.86-1.24,5.66-8,2.77-11.39a7.12,7.12,0,0,0-11,.53c-2.74,4.06.76,9.7,5.52,9.5,3.2-.13,3.22-5.13,0-5-1.09,0-2.09-1.26-1-2.07a2.09,2.09,0,0,1,3.12.85,2.68,2.68,0,0,1,0,2,2.38,2.38,0,0,1-.48.73c.34-.29.05.47.06-.24a18.55,18.55,0,0,1,0-2.68,9.64,9.64,0,0,0-.16-4.14c-.88-3.09-5.7-1.78-4.82,1.33Z" transform="translate(-27.39 -9.31)"/><path class="cls-6" d="M825.74,515.09c-2,3.47.48,7.64,4.09,8.7a5.65,5.65,0,0,0,7.21-5.64c-.08-3.66-3.11-7-6.91-6.53a7.11,7.11,0,0,0-5.91,8.08,5.51,5.51,0,0,0,4,4.53,4.26,4.26,0,0,0,5.42-2.72c.94-3.08-3.88-4.4-4.82-1.33.08-.25.7-.56.75-.74s.21.43,0,0c0,0-.43-.32-.32-.18a1.51,1.51,0,0,1,.09-1.5,2,2,0,0,1,1.32-1.16.91.91,0,0,1,.88.32,2.15,2.15,0,0,1,.49,1.68c0-.17-.08.23-.1.25s0,.14-.35.22c0,0-.33,0-.39,0a2.09,2.09,0,0,1-.85-.6,2.77,2.77,0,0,1-.33-.52c-.09-.09,0-.41,0-.16s-.25.46.08-.1c1.61-2.8-2.71-5.32-4.32-2.53Z" transform="translate(-27.39 -9.31)"/><path class="cls-6" d="M296.4,760.83c-1.18,3.67.39,8,4.16,9.33,3.45,1.25,7.86-.62,8.34-4.5.43-3.54-2.78-7.25-6.5-6.16-3.54,1-5.08,5.65-2.45,8.36a2.59,2.59,0,0,0,3,.39c3.23-1.42,2.3-5.92-.39-7.3-1.24-.64-3.47-1.19-4.74-.45a5.08,5.08,0,0,0-2,4.74,2.57,2.57,0,0,0,2.5,2.5,2.52,2.52,0,0,0,2.5-2.5c0-.27-.13-.59.06-.81l-1.77.73,1.14.2c-.59.17.4-1.51.21-1.43l3,.39c.28.29-.18.73.14.16s.22.11-.07-.19c.28.29.58.55.28,1-.42.57-1.64.31-2.09,0a2.7,2.7,0,0,1-.52-3c1-3.07-3.84-4.38-4.83-1.33Z" transform="translate(-27.39 -9.31)"/><path class="cls-6" d="M299.92,803.09a6.6,6.6,0,0,0-3.36,7.88,6,6,0,0,0,7.37,3.63,5.36,5.36,0,0,0,3.94-6.91,5.86,5.86,0,0,0-8.05-3.26l3.76,2.16c.18-1.82,3.48-1.93,3.43.23s-3.31,1.83-3.44,0c-.23-3.19-5.23-3.22-5,0a7.1,7.1,0,0,0,7,6.51,6.58,6.58,0,0,0,.3-13.14,7.1,7.1,0,0,0-7.25,6.39c-.21,2,2.23,2.88,3.76,2.16.34-.17,1.6,1-.12,1.08s-.75-2,.22-2.42c2.92-1.37.38-5.68-2.52-4.32Z" transform="translate(-27.39 -9.31)"/><path class="cls-6" d="M332.79,787.51c-1,3-1.48,6.39,1,8.81a5.13,5.13,0,0,0,7.45-.09,7.47,7.47,0,0,0,1.43-7.3c-.7-2.16-3.17-5.56-5.82-4.53-4.63,1.79-4.5,9-.62,11.43,2.65,1.68,5.14-.57,5.68-3.24a5.74,5.74,0,0,0-2.85-6.24c-2.85-1.48-5.38,2.84-2.52,4.32.34.18.85.85.34,1.19h2.52a1.72,1.72,0,0,1-.33-3h-2.52a2.86,2.86,0,0,1,1.26,3.65c-.21.53-.47.39-.23.44a1,1,0,0,1-.45-.36c-.47-1.23.1-2.55.49-3.73,1-3.07-3.83-4.38-4.82-1.33Z" transform="translate(-27.39 -9.31)"/><path class="cls-6" d="M587.15,761.84a5.8,5.8,0,0,0,9.3,5.5,6.57,6.57,0,0,0-.9-10.74c-3.65-2.1-9.32-.63-9.59,4.16-.22,3.88,4.63,8.85,8.31,5.48s.78-9.56-3.83-9.93a2.54,2.54,0,0,0-2.41,1.84l-1.79,4.63a2.52,2.52,0,0,0,1.75,3.07,2.55,2.55,0,0,0,3.07-1.74l1.79-4.63-2.41,1.83c-.22,0,.13.12.12.1a2.85,2.85,0,0,1,.32.59,1.85,1.85,0,0,1,0,.44c.44.26-.25,0,0,.07l.69-.27c0,.11-.66-.73-.68-1s0-.42.43-.55c1-.37,2.6.44,2.51,1.66,0,.49-.36,1.21-.89,1.31a1,1,0,0,1-.72-.22c-.13-.08-.14-.14-.24-.26-.24-.28-.07.06-.06,0,.6-3.14-4.22-4.49-4.82-1.32Z" transform="translate(-27.39 -9.31)"/><path class="cls-6" d="M578.5,791.45c-4,.84-6.12,6.06-3.65,9.38s7.85,2.91,10.09-.42c2.56-3.82-1.16-9.45-5.7-8.45-3.88.86-4.73,6.34-1.64,8.62,2,1.45,5.09.85,5.77-1.71.62-2.29-1-4.54-2.79-5.81a2.51,2.51,0,0,0-3.42.9,2.56,2.56,0,0,0,.89,3.42c-.23-.17.22.24.12.12l.29.46c-.17-.23.13.13,0,.14a.81.81,0,0,1,.4-.86q.17-.82.93-.72c.61-.09.5-.1.89.2-.29-.22-.08,0,0,0s0,.31,0-.11c0-.18,0-.14,0,.11v-.23l0,.22q.11-.37,0-.12c-.17.25.24-.19,0,0a4.15,4.15,0,0,0-.41.27c-.13.14-.08-.37,0,0,0-.06.62.78.54.63,0,.11-.21.41-.06.19s-.19.15-.06.09a4,4,0,0,1-.59.3,1.73,1.73,0,0,1-1.21-.12.25.25,0,0,1-.14-.22,2.19,2.19,0,0,1,.08-.64c-.1.25.1-.23.14-.3.24-.37-.31.29.22-.27-.14.15.09-.08.15-.11-.17.1.39-.12.47-.13a2.5,2.5,0,0,0-1.33-4.82Z" transform="translate(-27.39 -9.31)"/><path class="cls-6" d="M618.42,806.7c-5.25,2.65-4.07,10.87,1.36,12.47A2.52,2.52,0,0,0,622.6,818c1.67-3.81,4.83-13.13-1.71-14.19a5.32,5.32,0,0,0-5.67,2.88C614,809.23,615,812,616.85,814a2.52,2.52,0,0,0,3.93-.51L622,811c1.41-2.88-2.9-5.42-4.32-2.53l-1.21,2.46,3.92-.51a2,2,0,0,1-.62-1.65c0,.05.25-.08.24-.06s-.17-.84-.18.06a17.13,17.13,0,0,1-1.53,6.72l2.82-1.14c-1.48-.44-1.44-2.69-.17-3.33,2.87-1.46.35-5.77-2.52-4.32Z" transform="translate(-27.39 -9.31)"/><path class="cls-6" d="M621.49,777.21a4.48,4.48,0,0,0,3.28,7.53,2.52,2.52,0,0,0,2.41-1.83c.49-3.32-.12-6.76-2.6-9.2a8.43,8.43,0,0,0-8.7-1.86,6.5,6.5,0,0,0,2,12.67c3.21-.06,3.22-5.06,0-5a1.59,1.59,0,0,1-1.56-1.82c.18-.93,1.35-1.29,2.16-1.35,2.78-.19,4.19,2.8,3.83,5.23l2.41-1.84c.5.17.58.51.26,1,2.22-2.33-1.31-5.87-3.54-3.54Z" transform="translate(-27.39 -9.31)"/><path class="cls-6" d="M598.76,786.12a8.3,8.3,0,0,0-1.76,4.76,4.74,4.74,0,0,0,2.31,3.92,4.06,4.06,0,0,0,6.25-4.28c-.37-3-2.82-5.91-6.06-5.72a4.84,4.84,0,0,0-4.17,6.88,2.5,2.5,0,1,0,4.32-2.52c.39.78,0,.35.05.74,0,.09.24-.19.07-.09s.21,0,.15-.07-.17,0-.21,0a1.22,1.22,0,0,1,.47.3c.28.32.21.67.43,1a1.35,1.35,0,0,0,0,.18l.49-.58.6-.17s.52.17.21,0,.13,0,.06.14l-.13-.22c.11.49.15.57.14.24,0,0,.06-.35.06-.38a7.21,7.21,0,0,1,1-1.68,2.5,2.5,0,1,0-4.32-2.52Z" transform="translate(-27.39 -9.31)"/><path class="cls-3" d="M805.22,173.75c-17.51-2.11-17.86,5.52-29.37,18.72S759.18,223.66,760.3,241c.36,5.67,1.43,11.49,4.67,16.18,3.4,4.92,8.81,8.07,14.08,11,11.78,6.5,24,12.7,37.27,15.18s27.88.83,38.66-7.19c12.65-9.41,18-26.53,15.41-42s-12.28-29.09-24.51-39-26.9-16.53-41.8-21.86" transform="translate(-27.39 -9.31)"/><path class="cls-4" d="M805.22,171.25c-9-1-16.09.7-22,7.86-7,8.55-14.71,17.24-19.27,27.41a72.61,72.61,0,0,0-6.05,36.23c.52,5.51,1.72,11.08,4.88,15.73,3.67,5.39,9.4,8.78,15,11.88,21.73,12.05,48.74,23.72,73,11.36,21.15-10.78,27.26-37.63,19.09-58.64-10.84-27.86-38.54-42.56-65.13-52.15-3-1.09-4.34,3.74-1.33,4.82,21.42,7.73,43.38,18.45,56.17,38.17,11.46,17.68,13.07,42.91-3.55,58.15-18.38,16.86-46,9.18-65.62-.67C780.07,266.22,767.3,261,764,248.83c-2.94-10.69-1.35-23.34,2-33.73,3.64-11.22,10.74-19.3,17.73-28.49,2.33-3.05,4.64-6.59,7.95-8.68,4-2.54,9-2.16,13.55-1.68,3.2.35,3.17-4.66,0-5Z" transform="translate(-27.39 -9.31)"/><path class="cls-6" d="M812.52,208.51a7.31,7.31,0,0,0,3.14,6.29,6.55,6.55,0,0,0,3.61,1.3,4.09,4.09,0,0,0,3.26-2.19,4.49,4.49,0,0,0-2.08-6.35,4.8,4.8,0,0,0-6.27,2.88,2.52,2.52,0,0,0,1.75,3.07,2.56,2.56,0,0,0,3.08-1.74,3.64,3.64,0,0,1-.23.39c-.12.21-.37.06,0,0-.4,0,.13.12-.06,0s-.25-.07-.39-.22-.1-.23-.17-.34,0-.29,0-.1,0,.15,0,0,0-.14,0,.11l.06-.18a3,3,0,0,1,.44-.29h1.33a2.52,2.52,0,0,1-2-1,4.57,4.57,0,0,1-.33-.58c0-.1-.17-.6-.12-.28a3.29,3.29,0,0,1,0-.83A2.52,2.52,0,0,0,815,206a2.55,2.55,0,0,0-2.5,2.5Z" transform="translate(-27.39 -9.31)"/><path class="cls-6" d="M801.84,240.09c-3.26,1.09-5.74,4.27-5.13,7.82a6.13,6.13,0,0,0,6.58,4.85c3.29-.26,5.89-3.16,4.85-6.51a5.44,5.44,0,0,0-7.59-3.4c-1.59.79-1.42,2.75-.51,3.92a7.54,7.54,0,0,0,4.53,2.72c2.29.4,3.88-1.93,4.3-3.94.49-2.32-.66-3.82-2.73-4.75a7.68,7.68,0,0,0-5.46-.34c-3.06,1-1.75,5.79,1.33,4.82a2.64,2.64,0,0,1,2.75.53L804,244a1.58,1.58,0,0,1-.55,1.27l2.43-.65a3.4,3.4,0,0,1-2.32-1.42l-.51,3.92c-.32.16-.09-.08.06.2s.26.25.27.48c0-.34-.43,0-.68-.05-1.88-.22-1-2.38.45-2.87,3-1,1.74-5.85-1.33-4.83Z" transform="translate(-27.39 -9.31)"/><path class="cls-6" d="M829.05,254.72c-.48,4-.7,8.57,2,11.93,2.2,2.74,6.1,4.34,9.51,3a6.8,6.8,0,0,0,3.94-8.24c-1.13-3.63-5.26-5.24-8.72-4.26l3.08,3.07c1.59-6.08-6.34-9.14-9.64-4-1.74,2.71,2.59,5.22,4.32,2.52.29-.45.61-.27.49.15a2.53,2.53,0,0,0,3.08,3.08c3.76-1.07,3,4.76-.83,2.66-3.41-1.86-2.62-6.77-2.24-9.94s-4.62-3.16-5,0Z" transform="translate(-27.39 -9.31)"/><path class="cls-6" d="M787.67,213.67c-3.06,1.86-6.67,4.77-5.56,8.84,1,3.79,5.82,5.93,8.62,2.55s.5-7.49-3-8.9c-2.13-.86-4-.65-5.13,1.59a4.84,4.84,0,0,0,.9,5.41c2.11,2.44,5.64-1.11,3.54-3.53.15.17.06.3.14.22l-2.43.64a3.68,3.68,0,0,1,2.14,1,.44.44,0,0,1,0,.3q-.17.25.06.06c.25.22.21-.24.21-.13,0-.18-.28-.47-.28-.73a2,2,0,0,1,.61-1.06,10.8,10.8,0,0,1,2.67-2c2.74-1.67.23-6-2.52-4.31Z" transform="translate(-27.39 -9.31)"/><path class="cls-6" d="M829.11,231.47c-.77,2.31-.64,5,1.77,6.29a4.51,4.51,0,0,0,5.78-1.94c1.28-2.27.15-4.93-1.86-6.32-2.26-1.58-5-1.21-7.57-.69-3.15.64-1.81,5.46,1.33,4.82a8.4,8.4,0,0,1,2.64-.29c.18,0,.9.46,1,.44s.16-.53.5-.59c.5-.1.84.78.93.73a4.85,4.85,0,0,0,.31-1.12c1-3.06-3.81-4.38-4.82-1.33Z" transform="translate(-27.39 -9.31)"/></g></svg>